<svg xmlns="http://www.w3.org/2000/svg" viewBox="0 5.960000038146973 119.08999633789062 55.63999938964844" data-asc="0.89990234375" width="119.08999633789062" height="55.63999938964844"><defs/><g><g fill="#000000"><g transform="translate(0, 0)"><path d="M27.91 16.75Q29.25 16.75 30.11 17.18Q30.98 17.60 31.49 18.40Q32.01 19.19 32.20 20.29Q32.40 21.39 32.40 22.71Q32.40 23.80 32.29 25.04Q32.18 26.27 32.06 27.59Q31.74 30.62 31.53 33.54Q31.32 36.47 31.32 39.28Q31.32 42.43 31.63 44.96Q31.93 47.49 32.63 49.54Q33.33 51.59 34.47 53.21Q35.62 54.83 37.30 56.15Q37.57 56.37 37.72 56.51Q37.87 56.64 37.87 56.84Q37.87 57.15 37.43 57.15Q37.18 57.15 36.89 57.06Q35.21 56.42 33.40 55.20Q31.59 53.98 30.10 52.03Q28.61 50.07 27.65 47.28Q26.68 44.48 26.68 40.67Q26.68 38.09 26.86 35.55Q27.03 33.01 27.23 30.75Q27.44 28.49 27.61 26.60Q27.78 24.71 27.78 23.36Q27.78 22.63 27.66 22.22Q27.54 21.80 27.36 21.59Q27.17 21.39 26.93 21.34Q26.68 21.29 26.46 21.29Q26.17 21.29 25.88 21.48Q25.59 21.68 25.29 22.22Q25 22.75 24.72 23.67Q24.44 24.58 24.19 26.05Q24.02 26.95 23.82 28.22Q23.61 29.49 23.35 30.93Q23.10 32.37 22.84 33.87Q22.58 35.38 22.35 36.72Q22.12 38.06 21.91 39.15Q21.70 40.23 21.56 40.84Q20.95 43.43 19.98 44.63Q19.02 45.83 17.55 45.83Q16.48 45.83 15.86 45.34Q15.23 44.85 14.92 44.12Q14.60 43.38 14.53 42.52Q14.45 41.65 14.45 40.89Q14.45 35.99 14.58 31.27Q14.70 26.56 14.70 21.83Q14.70 20.07 14.60 18.68Q14.50 17.29 14.18 16.32Q13.87 15.36 13.31 14.83Q12.74 14.31 11.84 14.31Q10.99 14.31 10.36 15.30Q9.74 16.28 9.33 17.99Q8.91 19.70 8.69 22.02Q8.47 24.34 8.40 27.00Q8.35 28.83 8.31 30.74Q8.28 32.64 8.20 34.44Q8.13 36.23 8.01 37.83Q7.89 39.43 7.71 40.70Q7.54 42.90 7.31 44.32Q7.08 45.75 6.91 46.48Q6.76 47.12 6.40 47.36Q6.03 47.61 5.58 47.68Q5.13 47.75 4.66 47.75Q4.20 47.75 3.86 47.90Q3.44 48.07 3.00 48.07Q2.59 48.07 2.31 47.88Q2.03 47.68 2.03 47.19Q2.03 47.02 2.05 46.90Q2.10 46.61 2.26 45.63Q2.42 44.65 2.62 43.27Q2.83 41.89 3.05 40.23Q3.27 38.57 3.44 36.89Q3.61 35.21 3.74 33.62Q3.86 32.03 3.86 30.81Q3.86 28.78 3.72 27.23Q3.59 25.68 3.37 24.48Q3.15 23.27 2.84 22.30Q2.54 21.34 2.20 20.47Q1.86 19.60 1.50 18.74Q1.15 17.87 0.81 16.85Q0.37 15.53 0.18 14.25Q0 12.96 0 11.77Q0 10.55 0.16 9.48Q0.32 8.42 0.57 7.64Q0.83 6.86 1.12 6.41Q1.42 5.96 1.68 5.96Q2.00 5.96 2.17 6.35Q2.34 6.74 2.34 7.30Q2.34 7.50 2.33 7.76Q2.32 8.03 2.32 8.40Q2.32 9.01 2.39 9.88Q2.47 10.74 2.73 11.88Q3.00 13.01 3.52 14.40Q4.03 15.80 4.91 17.46Q5.30 18.19 5.62 18.91Q5.93 19.63 6.20 20.34Q6.64 18.12 7.36 16.50Q8.08 14.89 8.91 13.77Q9.74 12.65 10.62 11.94Q11.50 11.23 12.30 10.85Q13.11 10.47 13.75 10.34Q14.38 10.21 14.75 10.21Q15.77 10.21 16.50 10.77Q17.24 11.33 17.76 12.32Q18.29 13.31 18.62 14.64Q18.95 15.97 19.13 17.49Q19.31 19.02 19.37 20.67Q19.43 22.31 19.43 23.93Q19.43 27.27 19.32 29.70Q19.21 32.13 19.08 33.92Q18.95 35.72 18.84 37.00Q18.73 38.28 18.73 39.33Q18.73 39.60 18.84 39.75Q18.95 39.89 19.09 39.89Q19.34 39.89 19.51 39.67Q19.68 39.45 19.86 38.71Q20.04 37.96 20.28 36.52Q20.51 35.08 20.90 32.64Q21.22 30.62 21.48 28.66Q21.75 26.71 22.08 24.94Q22.41 23.17 22.85 21.67Q23.29 20.17 23.96 19.08Q24.63 17.99 25.59 17.37Q26.54 16.75 27.91 16.75ZM40.82 43.26Q41.41 43.26 41.85 42.87Q42.29 42.48 42.59 41.85Q42.90 41.21 43.09 40.37Q43.29 39.53 43.38 38.62Q42.68 38.13 42.00 37.35Q41.33 36.57 40.80 35.45Q40.48 34.79 40.33 34.09Q40.19 33.40 40.19 32.76Q40.19 31.96 40.41 31.25Q40.63 30.54 41.05 30.03Q41.48 29.52 42.11 29.21Q42.75 28.91 43.58 28.91Q44.63 28.91 45.30 29.41Q45.97 29.91 46.36 30.68Q46.75 31.45 46.91 32.35Q47.07 33.25 47.07 34.03Q47.07 35.06 46.94 36.13Q46.80 37.21 46.51 38.31Q47.41 38.23 48.12 37.81Q48.83 37.38 49.32 36.35Q49.61 35.74 49.93 35.74Q50.10 35.74 50.23 35.84Q50.37 35.94 50.37 36.16Q50.37 36.33 50.29 36.50Q49.80 37.89 48.67 38.70Q47.53 39.50 46.14 39.50Q45.73 40.70 45.13 41.76Q44.53 42.82 43.73 43.63Q42.92 44.43 41.89 44.90Q40.87 45.36 39.62 45.36Q38.96 45.36 38.13 45.17Q37.30 44.97 36.57 44.35Q35.84 43.73 35.34 42.59Q34.84 41.46 34.84 39.58Q34.84 38.04 35.41 36.33Q35.99 34.62 37.33 32.93Q37.84 32.30 38.27 32.03Q38.70 31.76 38.96 31.76Q39.50 31.76 39.50 32.42Q39.50 32.71 39.31 33.15Q39.11 33.59 38.89 34.28Q38.67 34.96 38.48 35.90Q38.28 36.84 38.28 38.11Q38.28 40.55 38.98 41.91Q39.67 43.26 40.82 43.26M43.53 36.08Q43.53 33.59 43.07 32.51Q42.60 31.42 42.04 31.64Q41.80 31.74 41.76 32.08Q41.72 32.42 41.72 32.74Q41.72 33.28 41.87 33.86Q42.02 34.45 42.25 35.03Q42.48 35.62 42.81 36.15Q43.14 36.67 43.51 37.11Q43.53 36.84 43.53 36.60Q43.53 36.35 43.53 36.08ZM61.25 36.50Q60.69 38.40 60.11 40.01Q59.52 41.63 58.86 42.80Q58.20 43.97 57.41 44.63Q56.62 45.29 55.62 45.29Q54.39 45.29 53.65 44.06Q52.91 42.82 52.91 40.80Q52.91 39.92 52.99 39.14Q53.08 38.35 53.19 37.62Q53.30 36.89 53.38 36.21Q53.47 35.52 53.47 34.86Q53.47 34.16 53.30 33.94Q53.13 33.72 52.86 33.72Q52.81 33.72 52.76 33.73Q52.71 33.74 52.58 33.75Q52.44 33.76 52.19 33.80Q51.93 33.84 51.49 33.89Q51.22 34.47 51.05 34.88Q50.88 35.28 50.76 35.57Q50.63 35.86 50.55 36.07Q50.46 36.28 50.39 36.50Q50.20 36.96 50.05 37.07Q49.90 37.18 49.71 37.18Q49.56 37.18 49.45 37.06Q49.34 36.94 49.34 36.72Q49.34 36.57 49.41 36.36Q49.49 36.16 49.60 35.83Q49.71 35.50 49.84 34.99Q49.98 34.47 50.12 33.72Q49.63 33.50 49.28 32.68Q48.93 31.86 48.93 30.76Q48.93 29.86 49.23 28.93Q49.54 28.00 49.99 27.23Q50.44 26.46 50.96 25.98Q51.49 25.49 51.90 25.49Q52.44 25.49 52.82 26.14Q53.20 26.78 53.20 27.61Q53.20 28.05 53.10 28.50Q53.00 28.96 52.89 29.33Q52.78 29.71 52.69 30.02Q52.59 30.32 52.59 30.49Q52.59 30.71 52.76 30.71Q52.88 30.71 53.20 30.59L54.39 30.05Q55.05 29.79 55.52 29.79Q56.30 29.79 56.56 30.27Q56.81 30.76 56.81 31.71Q56.81 32.13 56.71 33.17Q56.62 34.20 56.51 35.46Q56.40 36.72 56.31 37.96Q56.23 39.21 56.23 39.99Q56.23 40.84 56.41 41.25Q56.59 41.65 57.20 41.65Q57.64 41.65 58.07 41.14Q58.50 40.63 58.89 39.84Q59.28 39.06 59.63 38.13Q59.99 37.21 60.28 36.35Q60.50 35.74 60.91 35.74Q61.30 35.74 61.30 36.18Q61.30 36.25 61.29 36.33Q61.28 36.40 61.25 36.50ZM66.75 19.51Q66.82 19.65 66.82 19.82Q66.82 20.29 66.24 20.80Q65.75 21.24 65.33 21.66Q64.92 22.07 64.58 22.40Q64.23 22.73 63.96 22.92Q63.70 23.12 63.53 23.12Q63.40 23.12 63.29 23.07Q63.18 23.02 63.09 22.85Q62.79 22.29 62.50 21.68Q62.21 21.07 61.98 20.53Q61.74 20.00 61.60 19.59Q61.45 19.19 61.45 19.04Q61.45 18.77 61.69 18.46Q61.79 18.31 62.15 17.90Q62.50 17.48 62.90 17.02Q63.31 16.55 63.66 16.16Q64.01 15.77 64.14 15.65Q64.43 15.31 64.62 15.31Q64.84 15.31 64.97 15.63Q65.04 15.80 65.30 16.36Q65.55 16.92 65.84 17.57Q66.14 18.21 66.41 18.77Q66.67 19.34 66.75 19.51M70.00 35.74Q70.14 35.74 70.25 35.85Q70.36 35.96 70.36 36.16Q70.36 36.33 70.29 36.50Q69.73 38.11 69.25 39.43Q68.77 40.75 68.29 41.77Q67.58 43.31 66.93 44.13Q66.28 44.95 65.48 45.21Q65.28 45.26 65.04 45.31Q64.79 45.36 64.53 45.36Q63.92 45.36 63.22 45.12Q62.52 44.87 61.93 44.19Q61.33 43.51 60.94 42.27Q60.55 41.04 60.55 39.06Q60.55 37.30 60.67 35.68Q60.79 34.06 61.04 32.40Q61.40 31.64 61.93 31.02Q62.45 30.40 62.99 29.94Q63.53 29.49 63.98 29.25Q64.43 29.00 64.65 29.00Q64.75 29.00 64.75 29.22Q64.75 29.42 64.69 29.90Q64.62 30.37 64.55 31.23Q64.48 32.08 64.39 33.41Q64.31 34.74 64.26 36.65Q64.26 37.74 64.39 38.67Q64.53 39.60 64.78 40.28Q65.04 40.97 65.41 41.35Q65.77 41.72 66.21 41.72Q66.63 41.72 66.99 41.32Q67.36 40.92 67.72 40.20Q68.09 39.48 68.48 38.49Q68.87 37.50 69.31 36.35Q69.56 35.74 70.00 35.74ZM83.08 36.50Q82.35 38.70 81.71 40.34Q81.08 41.99 80.44 43.10Q79.81 44.21 79.09 44.78Q78.37 45.34 77.49 45.34Q76.88 45.34 76.48 44.95Q76.07 44.56 75.81 44.07Q75.54 43.58 75.40 43.13Q75.27 42.68 75.22 42.53Q75.20 42.48 75.17 42.38Q75.15 42.29 75.10 42.29Q75.05 42.29 75.01 42.36Q74.98 42.43 74.93 42.50Q74.85 42.68 74.54 43.14Q74.22 43.60 73.74 44.09Q73.27 44.58 72.66 44.96Q72.05 45.34 71.34 45.34Q70.78 45.34 70.25 44.97Q69.73 44.60 69.34 43.98Q68.95 43.36 68.71 42.50Q68.48 41.65 68.48 40.67Q68.48 38.55 69.15 36.68Q69.82 34.81 71.34 32.93Q72.07 32.03 72.89 31.32Q73.71 30.62 74.49 30.14Q75.27 29.66 75.99 29.42Q76.71 29.17 77.22 29.17Q77.56 29.17 77.91 29.30Q78.25 29.42 78.52 29.71Q78.78 30.00 78.94 30.48Q79.10 30.96 79.10 31.64Q79.10 32.37 78.87 33.23Q78.64 34.08 78.19 34.83Q77.73 35.57 77.08 36.06Q76.42 36.55 75.59 36.55Q75.07 36.55 75.07 36.16Q75.07 35.89 75.21 35.28Q75.34 34.67 75.34 34.11Q75.34 33.89 75.32 33.58Q75.29 33.28 75.20 32.98Q75.10 32.69 74.93 32.50Q74.76 32.30 74.46 32.30Q73.80 32.30 73.32 32.91Q72.83 33.52 72.50 34.40Q72.17 35.28 72.00 36.23Q71.83 37.18 71.83 37.87Q71.83 38.79 71.97 39.42Q72.12 40.04 72.36 40.42Q72.61 40.80 72.92 40.95Q73.24 41.11 73.58 41.11Q74.39 41.11 75.02 40.56Q75.66 40.01 76.12 39.34Q76.59 38.67 76.89 38.12Q77.20 37.57 77.39 37.57Q77.61 37.57 77.69 38.09Q77.83 39.18 78.00 39.89Q78.17 40.60 78.34 41.00Q78.52 41.41 78.70 41.56Q78.88 41.72 79.08 41.72Q79.44 41.72 79.81 41.30Q80.18 40.87 80.54 40.14Q80.91 39.40 81.30 38.43Q81.69 37.45 82.13 36.35Q82.40 35.74 82.76 35.74Q83.13 35.74 83.13 36.18Q83.13 36.35 83.08 36.50ZM94.04 36.50Q93.48 38.40 92.90 40.01Q92.31 41.63 91.65 42.80Q90.99 43.97 90.20 44.63Q89.40 45.29 88.40 45.29Q87.18 45.29 86.44 44.06Q85.69 42.82 85.69 40.80Q85.69 39.92 85.78 39.14Q85.86 38.35 85.97 37.62Q86.08 36.89 86.17 36.21Q86.25 35.52 86.25 34.86Q86.25 34.16 86.08 33.94Q85.91 33.72 85.64 33.72Q85.60 33.72 85.55 33.73Q85.50 33.74 85.36 33.75Q85.23 33.76 84.97 33.80Q84.72 33.84 84.28 33.89Q84.01 34.47 83.84 34.88Q83.67 35.28 83.54 35.57Q83.42 35.86 83.34 36.07Q83.25 36.28 83.18 36.50Q82.98 36.96 82.84 37.07Q82.69 37.18 82.50 37.18Q82.35 37.18 82.24 37.06Q82.13 36.94 82.13 36.72Q82.13 36.57 82.20 36.36Q82.28 36.16 82.39 35.83Q82.50 35.50 82.63 34.99Q82.76 34.47 82.91 33.72Q82.42 33.50 82.07 32.68Q81.71 31.86 81.71 30.76Q81.71 29.86 82.02 28.93Q82.32 28.00 82.78 27.23Q83.23 26.46 83.75 25.98Q84.28 25.49 84.69 25.49Q85.23 25.49 85.61 26.14Q85.99 26.78 85.99 27.61Q85.99 28.05 85.89 28.50Q85.79 28.96 85.68 29.33Q85.57 29.71 85.47 30.02Q85.38 30.32 85.38 30.49Q85.38 30.71 85.55 30.71Q85.67 30.71 85.99 30.59L87.18 30.05Q87.84 29.79 88.31 29.79Q89.09 29.79 89.34 30.27Q89.60 30.76 89.60 31.71Q89.60 32.13 89.50 33.17Q89.40 34.20 89.29 35.46Q89.18 36.72 89.10 37.96Q89.01 39.21 89.01 39.99Q89.01 40.84 89.20 41.25Q89.38 41.65 89.99 41.65Q90.43 41.65 90.86 41.14Q91.28 40.63 91.67 39.84Q92.07 39.06 92.42 38.13Q92.77 37.21 93.07 36.35Q93.29 35.74 93.70 35.74Q94.09 35.74 94.09 36.18Q94.09 36.25 94.08 36.33Q94.07 36.40 94.04 36.50ZM102.98 36.50Q102.20 38.75 101.57 40.41Q100.95 42.07 100.32 43.18Q99.68 44.29 98.95 44.84Q98.22 45.39 97.19 45.39Q96.61 45.39 95.95 45.06Q95.29 44.73 94.73 43.80Q94.17 42.87 93.80 41.20Q93.43 39.53 93.43 36.84Q93.43 36.13 93.49 34.97Q93.55 33.81 93.64 32.39Q93.73 30.96 93.85 29.36Q93.97 27.76 94.12 26.15Q93.99 26.17 93.90 26.18Q93.80 26.20 93.68 26.20Q92.36 26.34 91.75 26.45Q91.14 26.56 91.02 26.68Q90.89 26.78 90.89 26.92Q90.89 27.05 90.88 27.16Q90.87 27.27 90.81 27.36Q90.75 27.44 90.55 27.44Q90.43 27.44 90.25 27.38Q90.06 27.32 89.88 27.19Q89.70 27.05 89.58 26.84Q89.45 26.64 89.45 26.34Q89.45 26.07 89.56 25.78Q89.67 25.49 89.84 25.22Q90.01 24.93 90.34 24.51Q90.67 24.10 91.22 23.67Q91.77 23.24 92.58 22.88Q93.38 22.51 94.48 22.29Q94.60 21.26 94.74 20.47Q94.87 19.68 95.02 19.06Q95.17 18.43 95.30 17.93Q95.43 17.43 95.58 17.02Q95.87 16.06 96.31 15.56Q96.75 15.06 97.31 14.50Q97.92 13.89 98.35 13.68Q98.78 13.48 99.00 13.45Q99.22 13.45 99.40 13.59Q99.58 13.72 99.58 14.06Q99.58 14.26 99.56 14.39Q99.54 14.53 99.51 14.62Q99.44 14.89 99.28 15.58Q99.12 16.26 98.91 17.25Q98.71 18.24 98.49 19.47Q98.27 20.70 98.10 22.09Q99.41 22.19 100.31 22.42Q101.20 22.66 101.39 22.71Q101.81 22.85 101.95 22.97Q102.10 23.10 102.22 23.39Q102.32 23.58 102.45 23.71Q102.59 23.83 102.72 23.93Q102.86 24.02 102.95 24.15Q103.05 24.27 103.05 24.49Q103.05 24.68 102.95 24.87Q102.86 25.05 102.73 25.10Q102.56 25.20 102.10 25.28Q101.64 25.37 100.98 25.45Q100.32 25.54 99.48 25.62Q98.63 25.71 97.73 25.81Q97.44 28.83 97.16 31.64Q96.88 34.45 96.88 36.65Q96.88 37.77 97.01 38.70Q97.14 39.62 97.41 40.30Q97.68 40.97 98.06 41.33Q98.44 41.70 98.93 41.70Q99.37 41.70 99.73 41.30Q100.10 40.89 100.46 40.19Q100.83 39.48 101.21 38.50Q101.59 37.52 102.03 36.35Q102.25 35.74 102.66 35.74Q103.05 35.74 103.05 36.18Q103.05 36.25 103.03 36.35Q103.00 36.45 102.98 36.50ZM119.02 36.35Q118.53 37.79 117.98 39.10Q117.43 40.41 116.74 41.59Q116.04 42.77 115.14 43.86Q114.23 44.95 113.04 45.97Q112.96 47.14 112.84 48.34Q112.72 49.54 112.57 50.68Q112.18 53.66 111.57 55.53Q110.96 57.40 110.28 58.52Q109.59 59.64 108.90 60.18Q108.20 60.72 107.67 60.99Q106.45 61.60 105.62 61.60Q104.49 61.60 103.88 60.47Q103.27 59.35 103.27 57.57Q103.27 55.88 103.83 54.39Q104.39 52.91 105.29 51.59Q106.18 50.27 107.29 49.13Q108.40 48.00 109.52 47.05Q109.59 46.12 109.63 45.31Q109.67 44.51 109.72 43.95Q109.79 42.50 109.81 40.91Q109.84 39.31 109.89 37.94Q109.33 40.09 108.76 41.50Q108.20 42.92 107.63 43.75Q107.06 44.58 106.45 44.92Q105.83 45.26 105.15 45.26Q104.66 45.26 104.15 44.98Q103.64 44.70 103.21 43.93Q102.78 43.16 102.51 41.78Q102.25 40.41 102.25 38.23Q102.25 37.35 102.31 36.44Q102.37 35.52 102.49 34.66Q102.61 33.79 102.76 33.02Q102.91 32.25 103.10 31.67Q103.20 31.37 103.34 31.21Q103.49 31.05 103.59 30.93Q103.71 30.79 103.80 30.68Q103.88 30.57 104.00 30.57Q104.20 30.57 104.27 30.70Q104.35 30.83 104.54 30.83Q104.61 30.83 104.81 30.73Q105.00 30.62 105.22 30.47Q105.44 30.32 105.66 30.21Q105.88 30.10 106.03 30.10Q106.30 30.10 106.30 30.54Q106.30 30.71 106.26 30.93Q106.23 31.15 106.18 31.45Q105.93 32.57 105.87 33.80Q105.81 35.03 105.81 36.65Q105.81 37.74 105.82 38.66Q105.83 39.58 105.93 40.23Q106.03 40.89 106.24 41.26Q106.45 41.63 106.81 41.63Q107.25 41.63 107.63 40.99Q108.01 40.36 108.35 39.37Q108.69 38.38 109.01 37.16Q109.33 35.94 109.64 34.75Q109.96 33.57 110.27 32.56Q110.57 31.54 110.91 30.96Q111.18 30.52 111.76 30.20Q112.33 29.88 112.77 29.88Q113.01 29.88 113.18 29.94Q113.35 30.00 113.48 30.19Q113.60 30.37 113.66 30.73Q113.72 31.08 113.72 31.67Q113.72 32.67 113.68 33.85Q113.65 35.03 113.60 36.15Q113.55 37.26 113.50 38.13Q113.45 39.01 113.43 39.40Q113.38 39.97 113.32 41.25Q113.26 42.53 113.16 44.19Q114.06 43.43 114.76 42.59Q115.45 41.75 116.02 40.78Q116.58 39.82 117.07 38.72Q117.55 37.62 118.02 36.35Q118.29 35.69 118.75 35.69Q119.09 35.69 119.09 36.04Q119.09 36.11 119.07 36.21Q119.04 36.30 119.02 36.35M109.01 51.34Q109.08 50.90 109.16 50.44Q109.23 49.98 109.28 49.49Q108.59 50.29 108.02 51.20Q107.45 52.10 107.04 53.16Q106.64 54.22 106.41 55.46Q106.18 56.69 106.18 58.15Q106.18 58.98 106.31 59.33Q106.45 59.67 106.59 59.67Q106.84 59.67 107.10 59.20Q107.37 58.74 107.60 58.01Q107.84 57.28 108.06 56.36Q108.28 55.44 108.46 54.52Q108.64 53.59 108.79 52.75Q108.94 51.90 109.01 51.34Z"/></g><g transform="translate(0, 200.09765625)"><path d=""/></g></g></g></svg>
